<svg width="290" height="24" viewBox="1.469 0 289.463 24" fill="none" xmlns="http://www.w3.org/2000/svg" preserveAspectRatio="xMinYMid meet">
<g clip-path="url(#clip0_5_287)">
<path d="M37.9792 23.7604C36.1979 23.7604 34.5469 23.4635 33.0208 22.8646C31.4948 22.2656 30.1615 21.4323 29.0156 20.3594C27.8906 19.2708 27.0156 18.0052 26.3802 16.5625C25.7448 15.1198 25.4219 13.5521 25.4219 11.8646C25.4219 10.1771 25.7292 8.60937 26.3438 7.16667C26.9844 5.72396 27.8594 4.46875 28.9844 3.40104C30.1302 2.32813 31.4635 1.49479 32.9896 0.895833C34.5156 0.296875 36.1771 0 37.9792 0C39.7813 0 41.4427 0.296875 42.9688 0.895833C44.4948 1.49479 45.8229 2.32813 46.9427 3.40104C48.0885 4.46875 48.9688 5.72396 49.5833 7.16667C50.2188 8.60937 50.5365 10.1771 50.5365 11.8646C50.5365 13.5521 50.2188 15.1198 49.5833 16.5625C48.9479 18.0052 48.0573 19.2708 46.9115 20.3594C45.7865 21.4323 44.4635 22.2656 42.9375 22.8646C41.4115 23.4635 39.7604 23.7604 37.9792 23.7604ZM37.9792 19.4323C39.0625 19.4323 40.0573 19.25 40.9688 18.8802C41.901 18.5052 42.7135 17.9948 43.4167 17.3333C44.1146 16.651 44.6563 15.849 45.0365 14.9219C45.4167 13.9948 45.6094 12.9792 45.6094 11.8646C45.6094 10.75 45.4167 9.74479 45.0365 8.83854C44.6563 7.91146 44.1146 7.10417 43.4167 6.42708C42.7135 5.74479 41.901 5.23437 40.9688 4.88021C40.0573 4.51042 39.0625 4.32813 37.9792 4.32813C36.901 4.32813 35.8906 4.51042 34.9583 4.88021C34.0469 5.23437 33.2448 5.74479 32.5469 6.42708C31.8437 7.10417 31.3073 7.91146 30.9219 8.83854C30.5417 9.74479 30.349 10.75 30.349 11.8646C30.349 12.9792 30.5417 13.9948 30.9219 14.9219C31.3073 15.849 31.8437 16.651 32.5469 17.3333C33.2448 17.9948 34.0469 18.5052 34.9583 18.8802C35.8906 19.25 36.901 19.4323 37.9792 19.4323Z" fill="black"/>
<path d="M52.4427 23.3906V0.369781H61.5312C63.1614 0.369781 64.6041 0.651031 65.8541 1.20311C67.125 1.76041 68.1198 2.58332 68.8437 3.67707C69.5625 4.77082 69.9219 6.11978 69.9219 7.72395C69.9219 9.29166 69.5521 10.6198 68.8125 11.7083C68.0885 12.8021 67.0937 13.6354 65.8229 14.2135C64.5729 14.7708 63.1406 15.0469 61.5312 15.0469H57.3698V23.3906H52.4427ZM57.3698 10.875H61.5625C62.2604 10.875 62.8646 10.7396 63.375 10.4739C63.8854 10.2083 64.276 9.83332 64.5521 9.35936C64.8489 8.89061 64.9948 8.34374 64.9948 7.72395C64.9948 7.08332 64.8489 6.53124 64.5521 6.05728C64.276 5.58332 63.8854 5.21353 63.375 4.9427C62.8646 4.67707 62.2604 4.54166 61.5625 4.54166H57.3698V10.875Z" fill="black"/>
<path d="M102.964 23.7604C101.182 23.7604 99.526 23.4635 98.0052 22.8646C96.4792 22.2656 95.1406 21.4323 94 20.3594C92.875 19.2708 91.9948 18.0052 91.3594 16.5625C90.724 15.1198 90.4062 13.5521 90.4062 11.8646C90.4062 10.1771 90.7135 8.60937 91.3281 7.16667C91.9635 5.72396 92.8437 4.46875 93.9635 3.40104C95.1094 2.32813 96.4479 1.49479 97.9688 0.895833C99.4948 0.296875 101.161 0 102.964 0C104.76 0 106.427 0.296875 107.953 0.895833C109.479 1.49479 110.802 2.32813 111.927 3.40104C113.068 4.46875 113.948 5.72396 114.563 7.16667C115.198 8.60937 115.516 10.1771 115.516 11.8646C115.516 13.5521 115.198 15.1198 114.563 16.5625C113.927 18.0052 113.036 19.2708 111.896 20.3594C110.771 21.4323 109.448 22.2656 107.922 22.8646C106.396 23.4635 104.74 23.7604 102.964 23.7604ZM102.964 19.4323C104.042 19.4323 105.036 19.25 105.948 18.8802C106.88 18.5052 107.698 17.9948 108.396 17.3333C109.094 16.651 109.635 15.849 110.016 14.9219C110.401 13.9948 110.589 12.9792 110.589 11.8646C110.589 10.75 110.401 9.74479 110.016 8.83854C109.635 7.91146 109.094 7.10417 108.396 6.42708C107.698 5.74479 106.88 5.23437 105.948 4.88021C105.036 4.51042 104.042 4.32813 102.964 4.32813C101.88 4.32813 100.875 4.51042 99.9427 4.88021C99.0313 5.23437 98.224 5.74479 97.526 6.42708C96.8281 7.10417 96.2865 7.91146 95.9063 8.83854C95.526 9.74479 95.3333 10.75 95.3333 11.8646C95.3333 12.9792 95.526 13.9948 95.9063 14.9219C96.2865 15.849 96.8281 16.651 97.526 17.3333C98.224 17.9948 99.0313 18.5052 99.9427 18.8802C100.875 19.25 101.88 19.4323 102.964 19.4323Z" fill="black"/>
<path d="M116.375 23.3906V19.0625H117.802C118.755 19.0625 119.521 18.8073 120.094 18.2917C120.688 17.7552 120.984 17.0573 120.984 16.1927V0.369781H125.911V15.9739C125.911 17.4583 125.578 18.7552 124.922 19.8646C124.266 20.9792 123.323 21.8437 122.094 22.4635C120.885 23.0781 119.458 23.3906 117.802 23.3906H116.375Z" fill="black"/>
<path d="M128.438 23.3906V0.369781H144.359V4.54166H133.365V9.76562H143.724V13.9323H133.365V19.2187H144.359V23.3906H128.438Z" fill="black"/>
<path d="M156.818 23.7604C155.12 23.7604 153.542 23.4635 152.078 22.8646C150.641 22.2656 149.38 21.4323 148.297 20.3594C147.219 19.2917 146.37 18.0313 145.755 16.5937C145.161 15.151 144.865 13.5729 144.865 11.8646C144.865 10.1563 145.161 8.57813 145.755 7.13542C146.349 5.67708 147.187 4.41667 148.266 3.36979C149.349 2.29687 150.609 1.47396 152.047 0.895833C153.51 0.296875 155.099 0 156.818 0C158.531 0 160.068 0.276041 161.427 0.833333C162.802 1.39063 163.969 2.13021 164.922 3.05729C165.875 3.98437 166.552 5.01563 166.958 6.15104L162.599 8.1875C162.198 7.07292 161.49 6.15625 160.474 5.4375C159.474 4.69792 158.255 4.32813 156.818 4.32813C155.417 4.32813 154.187 4.64583 153.13 5.28125C152.068 5.92187 151.245 6.80729 150.651 7.94271C150.078 9.05208 149.792 10.3594 149.792 11.8646C149.792 13.3698 150.078 14.6875 150.651 15.8177C151.245 16.9531 152.068 17.8385 153.13 18.474C154.187 19.1146 155.417 19.4323 156.818 19.4323C158.255 19.4323 159.474 19.0729 160.474 18.3542C161.49 17.6094 162.198 16.6823 162.599 15.5729L166.958 17.6094C166.552 18.7448 165.875 19.776 164.922 20.7031C163.969 21.6302 162.802 22.3698 161.427 22.9271C160.068 23.4844 158.531 23.7604 156.818 23.7604Z" fill="black"/>
<path d="M172.786 23.3906V4.54166H166.781V0.369781H183.625V4.54166H177.714V23.3906H172.786Z" fill="black"/>
<path fill-rule="evenodd" clip-rule="evenodd" d="M71.4948 23.3906V0.369781H80.5521C82.1823 0.369781 83.625 0.651031 84.875 1.20311C86.1459 1.76041 87.1406 2.58332 87.8646 3.67707C88.5834 4.77082 88.9427 6.11978 88.9427 7.72395C88.9427 9.29166 88.5729 10.6302 87.8334 11.7396C87.0886 12.8333 86.0938 13.6562 84.8438 14.2135L90.2448 23.3906H84.7188L79.9167 15.0469H76.4219V23.3906H71.4948ZM80.5834 10.875H76.4219V4.54166H80.5834C81.2813 4.54166 81.8854 4.67707 82.3959 4.9427C82.9063 5.21353 83.2969 5.58332 83.5729 6.05728C83.8698 6.53124 84.0156 7.08332 84.0156 7.72395C84.0156 8.34374 83.8698 8.89061 83.5729 9.35936C83.2969 9.83332 82.9063 10.2083 82.3959 10.4739C81.8854 10.7396 81.2813 10.875 80.5834 10.875Z" fill="black"/>
<mask id="mask0_5_287" style="mask-type:luminance" maskUnits="userSpaceOnUse" x="1" y="0" width="25" height="24">
<path d="M1.46875 0H25.3333V24H1.46875V0Z" fill="white"/>
</mask>
<g mask="url(#mask0_5_287)">
<path d="M13.5469 23.7604C11.849 23.7604 10.2708 23.4635 8.80729 22.8646C7.34896 22.2656 6.06771 21.4323 4.96354 20.3594C3.85938 19.2917 3.00521 18.0313 2.39063 16.5937C1.77604 15.151 1.46875 13.5729 1.46875 11.8646C1.46875 10.1563 1.76563 8.57813 2.35417 7.13542C2.94792 5.67708 3.78646 4.41667 4.86979 3.36979C5.94792 2.29687 7.20833 1.47396 8.65104 0.895833C10.1146 0.296875 11.7031 0 13.4167 0C15.1354 0 16.6719 0.276041 18.026 0.833333C19.4063 1.39063 20.5677 2.13021 21.526 3.05729C22.4792 3.98437 23.1563 5.01563 23.5573 6.15104L19.2031 8.1875C18.8021 7.07292 18.0885 6.15625 17.0729 5.4375C16.0781 4.69792 14.8594 4.32813 13.4167 4.32813C12.0208 4.32813 10.7917 4.64583 9.72917 5.28125C8.67188 5.92187 7.84375 6.80729 7.25 7.94271C6.68229 9.05208 6.39583 10.3594 6.39583 11.8646C6.39583 13.3698 6.70313 14.6875 7.31771 15.8177C7.93229 16.9531 8.76563 17.8385 9.82813 18.474C10.9063 19.1146 12.1458 19.4323 13.5469 19.4323C14.625 19.4323 15.6302 19.2396 16.5677 18.849C17.5208 18.4375 18.2813 17.849 18.8542 17.0885C19.4479 16.3229 19.7448 15.4063 19.7448 14.3385V14.276H11.1615L13.4167 10.2604H24.6719V12.6979C24.6719 14.5729 24.3542 16.2083 23.7188 17.6094C23.0833 18.9896 22.224 20.1458 21.1406 21.0729C20.0833 21.9792 18.8854 22.6563 17.5521 23.1094C16.2344 23.5417 14.901 23.7604 13.5469 23.7604Z" fill="black"/>
</g>
<mask id="mask1_5_287" style="mask-type:luminance" maskUnits="userSpaceOnUse" x="198" y="13" width="94" height="11">
<path d="M198.667 13.3333H291.865V24H198.667V13.3333Z" fill="white"/>
</mask>
<g mask="url(#mask1_5_287)">
<path d="M200.484 23.4948V13.7448H204.359C204.953 13.7448 205.479 13.8646 205.948 14.1042C206.422 14.3385 206.786 14.6719 207.047 15.1094C207.318 15.5365 207.448 16.0521 207.448 16.6563V16.8333C207.448 17.4375 207.312 17.9583 207.031 18.3958C206.766 18.8333 206.396 19.1667 205.932 19.401C205.469 19.6302 204.943 19.75 204.359 19.75H201.99V23.4948H200.484ZM201.99 18.3802H204.203C204.734 18.3802 205.156 18.2448 205.474 17.9635C205.786 17.6875 205.948 17.3073 205.948 16.8229V16.6823C205.948 16.1927 205.786 15.8073 205.474 15.526C205.156 15.25 204.734 15.1094 204.203 15.1094H201.99V18.3802ZM209.156 23.4948V13.7448H213.255C213.859 13.7448 214.385 13.849 214.844 14.0625C215.307 14.2656 215.667 14.5625 215.917 14.9531C216.177 15.3437 216.307 15.8073 216.307 16.349V16.5C216.307 17.1146 216.156 17.6094 215.859 17.9792C215.573 18.3385 215.219 18.5937 214.802 18.7448V18.9687C215.156 18.9844 215.438 19.1094 215.651 19.3281C215.865 19.5417 215.969 19.8542 215.969 20.2656V23.4948H214.453V20.474C214.453 20.224 214.385 20.0208 214.255 19.875C214.125 19.724 213.917 19.651 213.63 19.651H210.661V23.4948H209.156ZM210.661 18.2865H213.089C213.625 18.2865 214.042 18.151 214.339 17.8802C214.641 17.6042 214.786 17.224 214.786 16.75V16.6406C214.786 16.1667 214.641 15.7969 214.339 15.526C214.052 15.25 213.635 15.1094 213.089 15.1094H210.661V18.2865ZM221.906 23.6927C220.708 23.6927 219.755 23.3542 219.047 22.6875C218.344 22.0104 217.99 21.0365 217.99 19.7604V17.4792C217.99 16.2031 218.344 15.2344 219.047 14.5625C219.755 13.8854 220.708 13.5469 221.906 13.5469C223.104 13.5469 224.057 13.8854 224.76 14.5625C225.474 15.2344 225.833 16.2031 225.833 17.4792V19.7604C225.833 21.0365 225.474 22.0104 224.76 22.6875C224.057 23.3542 223.104 23.6927 221.906 23.6927ZM221.906 22.3385C222.677 22.3385 223.271 22.1146 223.688 21.6719C224.104 21.2135 224.313 20.599 224.313 19.8177V17.4219C224.313 16.6406 224.104 16.026 223.688 15.5833C223.271 15.125 222.677 14.901 221.906 14.901C221.151 14.901 220.563 15.125 220.135 15.5833C219.708 16.026 219.495 16.6406 219.495 17.4219V19.8177C219.495 20.599 219.708 21.2135 220.135 21.6719C220.563 22.1146 221.151 22.3385 221.906 22.3385ZM230.568 23.6927C229.594 23.6927 228.818 23.4219 228.24 22.8854C227.667 22.3333 227.38 21.5625 227.38 20.5677V19.7344H228.885V20.5677C228.885 21.0885 229.021 21.5104 229.302 21.8229C229.589 22.1302 230 22.2813 230.542 22.2813C231.063 22.2813 231.448 22.1302 231.698 21.8229C231.948 21.5156 232.073 21.099 232.073 20.5677V15.1094H230.375V13.7448H234.667V15.1094H233.578V20.5677C233.578 21.5833 233.313 22.3594 232.786 22.8958C232.266 23.4271 231.526 23.6927 230.568 23.6927ZM236.552 23.4948V13.7448H242.698V15.1094H238.057V17.9063H242.307V19.276H238.057V22.1302H242.771V23.4948H236.552ZM244.615 23.4948V13.7448H246.12V17.7969H246.344L249.979 13.7448H251.943L247.542 18.5521L252.099 23.4948H250.078L246.344 19.3594H246.12V23.4948H244.615ZM255.833 23.4948V15.1094H252.839V13.7448H260.333V15.1094H257.339V23.4948H255.833ZM265.234 23.6927C264.036 23.6927 263.083 23.3542 262.375 22.6875C261.672 22.0104 261.318 21.0365 261.318 19.7604V17.4792C261.318 16.2031 261.672 15.2344 262.375 14.5625C263.083 13.8854 264.036 13.5469 265.234 13.5469C266.432 13.5469 267.385 13.8854 268.089 14.5625C268.807 15.2344 269.161 16.2031 269.161 17.4792V19.7604C269.161 21.0365 268.807 22.0104 268.089 22.6875C267.385 23.3542 266.432 23.6927 265.234 23.6927ZM265.234 22.3385C266.005 22.3385 266.599 22.1146 267.016 21.6719C267.438 21.2135 267.646 20.599 267.646 19.8177V17.4219C267.646 16.6406 267.438 16.026 267.016 15.5833C266.599 15.125 266.005 14.901 265.234 14.901C264.479 14.901 263.891 15.125 263.464 15.5833C263.036 16.026 262.823 16.6406 262.823 17.4219V19.8177C262.823 20.599 263.036 21.2135 263.464 21.6719C263.891 22.1146 264.479 22.3385 265.234 22.3385ZM272.005 23.4948L270.573 13.7448H272.073L273.245 22.4792H273.469L274.974 13.7448H277.609L279.109 22.4792H279.333L280.49 13.7448H281.995L280.563 23.4948H277.927L276.396 14.6354H276.172L274.651 23.4948H272.005ZM282.724 23.4948L285.51 13.7448H288.156L290.932 23.4948H289.385L288.745 21.1979H284.927L284.286 23.4948H282.724ZM285.302 19.8021H288.365L286.948 14.6771H286.724L285.302 19.8021Z" fill="black"/>
</g>
<path d="M200.484 10.2969V0.541677H204.359C204.953 0.541677 205.479 0.661468 205.948 0.906261C206.422 1.13543 206.786 1.47397 207.047 1.90626C207.318 2.33334 207.448 2.84897 207.448 3.45314V3.63543C207.448 4.23959 207.312 4.76043 207.031 5.19793C206.766 5.63543 206.396 5.96876 205.932 6.19793C205.469 6.4323 204.943 6.54688 204.359 6.54688H201.99V10.2969H200.484ZM201.99 5.1823H204.203C204.734 5.1823 205.156 5.04168 205.474 4.76564C205.786 4.48438 205.948 4.10418 205.948 3.6198V3.48438C205.948 2.98959 205.786 2.60418 205.474 2.32814C205.156 2.04688 204.734 1.90626 204.203 1.90626H201.99V5.1823ZM209.156 10.2969V0.541677H213.255C213.859 0.541677 214.385 0.651051 214.844 0.864594C215.307 1.06772 215.667 1.36459 215.917 1.75522C216.177 2.14584 216.307 2.60938 216.307 3.14584V3.30209C216.307 3.91668 216.156 4.40626 215.859 4.77605C215.573 5.14064 215.219 5.39584 214.802 5.54688V5.76564C215.156 5.78647 215.438 5.90626 215.651 6.13022C215.865 6.34376 215.969 6.65626 215.969 7.06251V10.2969H214.453V7.27084C214.453 7.02084 214.385 6.82293 214.255 6.67188C214.125 6.52605 213.917 6.44793 213.63 6.44793H210.661V10.2969H209.156ZM210.661 5.08334H213.089C213.625 5.08334 214.042 4.94793 214.339 4.6823C214.641 4.40105 214.786 4.02605 214.786 3.55209V3.44272C214.786 2.96876 214.641 2.59376 214.339 2.32814C214.052 2.04688 213.635 1.90626 213.089 1.90626H210.661V5.08334ZM217.516 10.2969L220.302 0.541677H222.948L225.724 10.2969H224.177L223.536 7.9948H219.719L219.078 10.2969H217.516ZM220.094 6.60418H223.156L221.74 1.47397H221.516L220.094 6.60418ZM230.839 10.4896C229.646 10.4896 228.703 10.1563 228.005 9.48959C227.313 8.8073 226.964 7.83334 226.964 6.56251V4.27605C226.964 3.00522 227.313 2.03126 228.005 1.36459C228.703 0.68751 229.646 0.348969 230.839 0.348969C232.005 0.348969 232.906 0.671885 233.542 1.32293C234.182 1.97397 234.5 2.85938 234.5 3.98438V4.06772H233.01V3.94272C233.01 3.28126 232.828 2.7448 232.469 2.32814C232.115 1.90626 231.568 1.69793 230.839 1.69793C230.094 1.69793 229.51 1.92709 229.094 2.38022C228.677 2.82814 228.469 3.44793 228.469 4.25001V6.58855C228.469 7.38022 228.677 8.00001 229.094 8.45834C229.51 8.91147 230.094 9.14064 230.839 9.14064C231.568 9.14064 232.115 8.9323 232.469 8.51043C232.828 8.08334 233.01 7.54689 233.01 6.89584V6.66147H234.5V6.85418C234.5 7.97918 234.182 8.86459 233.542 9.51564C232.906 10.1667 232.005 10.4896 230.839 10.4896ZM240.109 10.4896C238.911 10.4896 237.958 10.1563 237.255 9.48959C236.547 8.8073 236.193 7.83334 236.193 6.56251V4.27605C236.193 3.00522 236.547 2.03126 237.255 1.36459C237.958 0.68751 238.911 0.348969 240.109 0.348969C241.307 0.348969 242.26 0.68751 242.969 1.36459C243.682 2.03126 244.036 3.00522 244.036 4.27605V6.56251C244.036 7.83334 243.682 8.8073 242.969 9.48959C242.26 10.1563 241.307 10.4896 240.109 10.4896ZM240.109 9.14064C240.88 9.14064 241.474 8.91668 241.896 8.46876C242.313 8.01564 242.521 7.39584 242.521 6.6198V4.21876C242.521 3.44272 242.313 2.82814 241.896 2.38022C241.474 1.92709 240.88 1.69793 240.109 1.69793C239.359 1.69793 238.766 1.92709 238.339 2.38022C237.911 2.82814 237.698 3.44272 237.698 4.21876V6.6198C237.698 7.39584 237.911 8.01564 238.339 8.46876C238.766 8.91668 239.359 9.14064 240.109 9.14064ZM246.88 10.2969L245.448 0.541677H246.953L248.12 9.28126H248.344L249.849 0.541677H252.484L253.99 9.28126H254.208L255.365 0.541677H256.87L255.438 10.2969H252.802L251.271 1.4323H251.047L249.531 10.2969H246.88ZM258.635 10.2969V0.541677H261.536L264.182 9.29168H264.406V0.541677H265.896V10.2969H263L260.349 1.53126H260.13V10.2969H258.635ZM268.208 10.2969V0.541677H269.714V10.2969H268.208ZM271.302 10.2969L274.089 0.541677H276.734L279.51 10.2969H277.964L277.323 7.9948H273.505L272.859 10.2969H271.302ZM273.88 6.60418H276.943L275.521 1.47397H275.302L273.88 6.60418Z" fill="black"/>
<path d="M185.453 23.4948L193.526 0.395844H196.167L188.193 23.4948H185.453Z" fill="#FF3B00"/>
</g>
<defs>
<clipPath id="clip0_5_287">
<rect x="1.469" y="0" width="289.463" height="24" fill="white"/>
</clipPath>
</defs>
</svg>
